<?xml version="1.0" encoding="utf-8"?>
<!-- Generator: Adobe Illustrator 22.1.0, SVG Export Plug-In . SVG Version: 6.00 Build 0)  -->
<svg version="1.1" id="Ebene_1" xmlns="http://www.w3.org/2000/svg" xmlns:xlink="http://www.w3.org/1999/xlink" x="0px" y="0px"
	 viewBox="0 0 509 52" style="enable-background:new 0 0 509 52;" xml:space="preserve">
<style type="text/css">
	.st0{fill:#FFFFFF;}
</style>
<g>
	<g>
		<path d="M19.9,52.1l0-0.2V26.1c0,0,0,0,0,0c0,0-0.1-0.1-0.4-0.5c-0.2-0.2-3-3.6-8.3-10.2C3.7,6.2-0.2,1.5-0.4,1.2L-0.5,1h44.7
			L44,1.2c-1.9,2.4-5.3,6.5-10.2,12.5l-5.1,6.2c-4.1,4.9-5,6.1-5,6.2l0,25.9l-0.2,0H19.9z M7.7,4.9c6.2,7.6,9.3,11.4,9.5,11.6
			c2.7,3.3,4.2,5.3,4.6,5.7c7.1-8.7,10.8-13.3,11-13.5c0.1-0.1,0.5-0.6,3.1-3.9H7.7z"/>
		<path d="M43.9,1.1C42,3.5,38.6,7.6,33.8,13.6l-5.1,6.2c-3.4,4.1-5,6.2-5.1,6.2v25.9c0,0,0,0,0,0H20c0,0,0,0,0,0V26.1
			c0,0-0.2-0.2-0.5-0.6c-0.2-0.2-3-3.6-8.3-10.2C3.8,6.1-0.1,1.4-0.3,1.1H43.9 M36.2,4.8H7.4c6.3,7.7,9.5,11.6,9.7,11.8
			c3,3.7,4.6,5.7,4.7,5.8C29,13.6,32.7,9.1,32.9,8.8C33,8.8,34.1,7.4,36.2,4.8 M44.5,0.9h-0.5H-0.3h-0.5l0.3,0.4
			c0.2,0.3,4.1,5.1,11.5,14.2c5.4,6.7,8.1,10,8.3,10.2c0.3,0.3,0.4,0.4,0.4,0.5v25.8v0.3l0.3,0h3.6h0.3l0-0.3V26.1
			c0.2-0.3,1.3-1.6,5-6.1l5.1-6.2c4.9-6,8.2-10.1,10.2-12.5L44.5,0.9L44.5,0.9z M7.9,5h27.7c-2.4,3-2.9,3.6-3,3.7
			c-0.2,0.3-3.8,4.8-10.9,13.4c-0.5-0.6-2-2.5-4.5-5.6C17.1,16.2,14,12.5,7.9,5L7.9,5z"/>
	</g>
	<g>
		<path d="M68.1,52.1c-4.3,0-8.4-1.1-12.4-3.3c-0.7-0.4-1.7-1.1-3-2l-0.1,0v-0.1l1-2.2l6.8-13.8c5.1-10.4,7.8-15.7,7.8-15.9
			c0.4-0.7,2.4-4.9,6.1-12.4C74.5,2.1,74.6,2,74.7,2c2.5,0.8,4.4,1.6,5.9,2.4c0.9,0.4,1.8,1.1,2.9,1.8c0.7,0.5,1.6,1.2,2.5,2.2
			c1.3,1.3,2.1,2.1,2.4,2.7c1,1.3,1.7,2.4,2.1,3.2c0.6,1,1.2,2.3,1.7,3.8c1,2.8,1.5,5.6,1.5,8.3v0.3c0,4.3-1.1,8.4-3.3,12.4
			c-0.6,1.1-1.4,2.2-2.4,3.5c-1.2,1.5-2.5,2.7-3.8,3.8c-1,0.8-1.9,1.4-2.6,1.8c-4.2,2.5-8.6,3.8-13.2,3.8H68.1z M57.8,45.3
			c0.5,0.3,1.2,0.6,2.1,1c2.7,1.1,5.5,1.7,8.1,1.7h0.6c3,0,6-0.7,9.1-2.2c1.1-0.5,2.3-1.3,3.5-2.2c0.6-0.5,1.3-1.1,2-1.7
			c0.9-0.9,1.6-1.6,1.9-2.1c0.9-1.2,1.5-2.2,1.9-2.9c1.7-3.2,2.6-6.6,2.6-10.2v-0.1c0-4.4-1.4-8.6-4-12.4c-0.5-0.7-1.2-1.5-2.1-2.4
			c-1-1-1.8-1.7-2.4-2.1c-1.2-0.9-2.3-1.6-3.3-2.1c-0.5-0.2-0.9-0.4-1.1-0.5c-3.9,7.9-7.1,14.3-9.4,19.1c-5.4,11-8.3,16.9-8.7,17.6
			L57.8,45.3z M48.6,43.1c-1.4-2.2-2.3-3.6-2.7-4.3c-2-3.8-3.1-7.9-3.1-12v-0.2c0-4.6,1.3-9.1,3.7-13.2c0.6-1,1.4-2.1,2.4-3.3
			c0.8-0.9,1.7-1.9,2.8-2.8c2.7-2.2,5.6-3.8,8.7-4.8c0.9-0.3,2.1-0.6,3.5-0.8c0.7-0.2,2.6-0.4,5.5-0.6l0.1,0v0.1c0,0,0,0.1-5.7,11.5
			c-0.2,0.4-2.4,4.9-6.6,13.3c-4.3,8.7-6.7,13.6-7.2,14.5c-0.5,1.1-1,2-1.3,2.7l-0.1,0.2L48.6,43.1z M62.6,6.1
			c-0.7,0.2-1.5,0.4-2.2,0.7c-4.8,2-8.5,5.3-11,9.9c-1.7,3.2-2.5,6.5-2.5,10c0,2.8,0.5,5.5,1.5,8.1c0.6-1.1,3-6,7.2-14.5
			C59.6,12.1,62,7.4,62.6,6.1z"/>
		<path d="M69.4,1.2c0,0-1.9,3.8-5.7,11.4c-0.2,0.4-2.4,4.8-6.6,13.3c-4.3,8.8-6.7,13.6-7.2,14.4c-0.5,1.1-1,2-1.3,2.7
			c-1.4-2.2-2.3-3.6-2.7-4.3c-2-3.8-3.1-7.8-3.1-11.9v-0.2c0-4.6,1.2-9,3.7-13.1c0.6-1,1.4-2.1,2.4-3.3c0.8-0.9,1.7-1.8,2.8-2.8
			c2.7-2.2,5.5-3.8,8.6-4.8C61.4,2.3,62.5,2,64,1.7C64.7,1.6,66.5,1.4,69.4,1.2 M48.4,35c0.1-0.2,2.6-5.1,7.3-14.7
			c4.3-8.6,6.6-13.4,7.1-14.4v0c-0.8,0.2-1.6,0.5-2.4,0.8c-4.9,2-8.6,5.3-11.1,9.9c-1.7,3.2-2.5,6.6-2.5,10.1v0.1
			C46.8,29.5,47.3,32.3,48.4,35 M74.7,2.1c2.4,0.8,4.4,1.5,5.8,2.4c0.9,0.4,1.8,1.1,2.8,1.8c0.7,0.5,1.5,1.2,2.5,2.1
			c1.2,1.2,2.1,2.1,2.4,2.7c1,1.3,1.7,2.4,2.1,3.2c0.6,1.1,1.2,2.3,1.7,3.8c1,2.8,1.5,5.5,1.5,8.3v0.3c0,4.3-1.1,8.4-3.3,12.3
			c-0.6,1.1-1.4,2.2-2.4,3.5c-1.2,1.5-2.4,2.7-3.8,3.8c-1,0.8-1.9,1.4-2.6,1.8c-4.2,2.5-8.5,3.8-13.1,3.8h-0.4
			c-4.3,0-8.4-1.1-12.3-3.3c-0.7-0.4-1.7-1.1-3-2v0c0.8-1.5,3.4-6.8,7.8-15.9c5.2-10.5,7.8-15.8,7.8-15.9c0.4-0.7,2.4-4.8,6.1-12.4
			C74.6,2.2,74.7,2.1,74.7,2.1 M68,48.1h0.6c3,0,6.1-0.7,9.1-2.2c1.1-0.5,2.3-1.3,3.6-2.2c0.6-0.5,1.3-1.1,2-1.8
			c0.9-0.9,1.6-1.6,1.9-2.1c0.9-1.2,1.5-2.2,1.9-3c1.8-3.2,2.6-6.6,2.6-10.2v-0.1c0-4.5-1.3-8.6-4-12.5c-0.5-0.7-1.2-1.5-2.1-2.5
			c-1-1-1.8-1.7-2.5-2.1C80,8.6,78.9,8,77.8,7.4c-0.6-0.3-1-0.5-1.2-0.6c-3.9,8-7.1,14.4-9.5,19.2c-5.4,11-8.3,16.9-8.7,17.6
			l-0.8,1.6c0.5,0.3,1.3,0.7,2.2,1.1C62.6,47.6,65.3,48.1,68,48.1 M69.7,0.9l-0.3,0c-2.9,0.2-4.7,0.4-5.5,0.6
			c-1.4,0.3-2.6,0.5-3.5,0.9c-3.1,1-6,2.6-8.7,4.8c-1.1,0.9-2,1.9-2.8,2.8c-1,1.2-1.9,2.3-2.4,3.3c-2.5,4.1-3.8,8.6-3.8,13.2v0.2
			c0,4.1,1,8.2,3.1,12c0.4,0.7,1.3,2.2,2.7,4.3l0.2,0.3l0.2-0.4c0.4-0.7,0.8-1.6,1.3-2.7c0.4-0.9,2.9-5.7,7.2-14.4
			c4.2-8.4,6.4-12.9,6.6-13.3c5.7-11.4,5.7-11.4,5.7-11.5V0.9L69.7,0.9z M48.5,34.4c-1-2.5-1.4-5.1-1.4-7.7v-0.1
			c0-3.4,0.8-6.8,2.5-9.9c2.5-4.5,6.2-7.8,11-9.8c0.6-0.2,1.2-0.4,1.9-0.6c-0.8,1.5-2.9,5.9-6.9,13.9C51.6,28.2,49.2,32.9,48.5,34.4
			L48.5,34.4z M74.7,1.9L74.7,1.9c-0.2,0-0.3,0.2-0.4,0.5c-3.7,7.5-5.8,11.7-6.1,12.4c-0.1,0.2-2.7,5.6-7.8,15.9l-6.8,13.8l-1,2.1
			l0,0.1v0.1v0.1l0.1,0.1c1.3,0.9,2.3,1.6,3,2c4,2.2,8.2,3.3,12.5,3.3h0.4c4.6,0,9.1-1.3,13.2-3.8c0.8-0.4,1.6-1.1,2.6-1.8
			c1.3-1.1,2.6-2.3,3.8-3.8c1-1.3,1.8-2.5,2.4-3.5c2.2-4,3.3-8.1,3.3-12.4v-0.3c0-2.8-0.5-5.6-1.5-8.4c-0.5-1.5-1.1-2.8-1.7-3.9
			c-0.4-0.8-1.2-1.9-2.1-3.2c-0.4-0.5-1.2-1.4-2.4-2.7c-1-1-1.9-1.7-2.6-2.2c-1-0.8-2-1.4-2.9-1.8C79.2,3.5,77.2,2.6,74.7,1.9
			L74.7,1.9L74.7,1.9z M58,45.2l0.7-1.4c0.4-0.8,3.6-7.2,8.7-17.6c2.4-4.8,5.5-11.1,9.4-19c0.2,0.1,0.6,0.3,1,0.5
			c1,0.5,2.1,1.2,3.3,2c0.6,0.4,1.4,1.1,2.4,2.1c0.9,0.9,1.6,1.8,2,2.4c2.7,3.8,4,7.9,4,12.3v0.1c0,3.6-0.9,7-2.6,10.1
			c-0.4,0.8-1,1.7-1.9,2.9c-0.4,0.5-1,1.2-1.9,2.1c-0.7,0.7-1.4,1.3-2,1.7c-1.2,0.9-2.4,1.6-3.5,2.2c-3,1.4-6.1,2.2-9,2.2H68
			c-2.7,0-5.4-0.6-8.1-1.7C59.1,45.8,58.5,45.5,58,45.2L58,45.2z"/>
	</g>
	<g>
		<path d="M122,52.1c-4.3,0-8.3-1.2-12.1-3.7c-0.8-0.5-1.7-1.3-2.8-2.2c-1.1-1.1-1.7-1.8-2.1-2.2c-0.6-0.8-1.2-1.6-1.7-2.3
			c-2.2-3.6-3.3-7.4-3.3-11.4V1.1l0.2,0h42.2l0,0.2v30.5c0,3.8-1.1,7.4-3.1,10.8c-0.5,0.7-1.1,1.6-1.9,2.5c-0.8,0.9-1.5,1.6-2,2
			c-1.1,0.9-2,1.6-2.7,2c-3.4,2-6.9,3-10.6,3H122z M104.2,30.1c0,4.3,1.4,8.2,4.2,11.6c0.9,0.9,1.6,1.7,2.2,2.2c1,0.8,2,1.5,3,2
			c2.7,1.4,5.5,2.1,8.3,2.1c3.4,0,6.6-1,9.6-3.1c0.6-0.4,1.3-1,2.1-1.8c0.9-0.9,1.4-1.6,1.7-2c2-2.8,3-6,3-9.4V5.2h-34.2V30.1z"/>
		<path d="M142.4,1.2C142.4,1.2,142.4,1.2,142.4,1.2l0,30.6c0,3.8-1,7.3-3.1,10.7c-0.5,0.7-1.1,1.6-1.9,2.5c-0.8,0.9-1.5,1.6-2,2
			c-1.1,0.9-1.9,1.6-2.7,2c-3.4,2-6.9,3-10.5,3H122c-4.3,0-8.3-1.2-12-3.7c-0.8-0.5-1.7-1.3-2.7-2.2c-1.1-1-1.7-1.8-2-2.2
			c-0.6-0.8-1.2-1.6-1.7-2.3c-2.2-3.6-3.2-7.3-3.2-11.3V1.2c0,0,0,0,0,0H142.4 M122.1,48.1c3.4,0,6.7-1,9.6-3.1
			c0.6-0.4,1.3-1,2.1-1.8c0.9-0.9,1.4-1.6,1.7-2.1c2-2.9,3-6,3-9.5V5h-34.5v25.1c0,4.3,1.4,8.2,4.3,11.6c0.9,1,1.6,1.7,2.3,2.2
			c1,0.8,2,1.5,3.1,2C116.4,47.4,119.2,48.1,122.1,48.1 M142.4,1h-42h-0.3l0,0.3v29.1c0,4,1.1,7.8,3.3,11.4c0.5,0.7,1,1.5,1.7,2.3
			c0.3,0.4,1,1.2,2.1,2.2c1.1,1,2,1.7,2.8,2.2c3.8,2.5,7.9,3.7,12.2,3.7h0.2c3.7,0,7.3-1,10.6-3c0.7-0.5,1.6-1.1,2.7-2
			c0.5-0.4,1.2-1.1,2-2c0.8-0.9,1.4-1.8,1.9-2.5c2.1-3.4,3.2-7.1,3.2-10.9V1.2V1L142.4,1L142.4,1z M104.4,5.3h34v26.3
			c0,3.4-1,6.5-3,9.3c-0.3,0.5-0.8,1.1-1.7,2c-0.8,0.8-1.5,1.4-2.1,1.8c-2.9,2-6.1,3-9.5,3c-2.9,0-5.6-0.7-8.3-2c-1-0.6-2-1.2-3-2
			c-0.6-0.5-1.4-1.2-2.2-2.2c-2.8-3.4-4.2-7.2-4.2-11.5V5.3L104.4,5.3z"/>
	</g>
	<g>
		<path d="M194.1,52.1c-7.7-7.7-12-12.1-13.2-13.3c-6.6-6.7-10-10.1-10.2-10.3l-12.3,0V52l-0.2,0h-3.9l0-0.2V1.1l0.2,0h13.3
			c2.7,0,5.3,0.8,7.7,2.5c0.5,0.3,1.2,0.9,2,1.7c0.7,0.8,1.2,1.3,1.5,1.8c0.5,0.8,1,1.7,1.3,2.5c0.7,1.7,1,3.4,1,5V15
			c0,2.4-0.7,4.8-2.1,7.2c-0.4,0.6-0.9,1.2-1.5,1.9c-0.8,0.8-1.4,1.4-1.7,1.6c-0.4,0.3-0.8,0.6-1.4,0.9c6.6,6.6,10.1,10.2,10.5,10.6
			c0.3,0.3,3.6,3.6,9.7,9.8l4.9,5H194.1z M167.5,24.4c2.6,0,5-0.9,6.9-2.8c0.7-0.7,1.1-1.3,1.4-1.7c1-1.6,1.5-3.3,1.5-5.2
			c0-2.2-0.8-4.3-2.3-6.1c-0.7-0.7-1.2-1.2-1.5-1.4c-1.8-1.3-3.8-2-5.9-2h-9.2v19.3H167.5z"/>
		<path d="M167.8,1.2c2.7,0,5.2,0.8,7.6,2.5c0.5,0.3,1.2,0.9,1.9,1.7c0.7,0.8,1.2,1.3,1.5,1.8c0.5,0.8,1,1.7,1.3,2.5
			c0.7,1.7,1,3.3,1,5V15c0,2.4-0.7,4.8-2.1,7.1c-0.4,0.6-0.8,1.2-1.5,1.9c-0.8,0.8-1.4,1.4-1.7,1.6c-0.4,0.3-0.9,0.6-1.5,1
			c6.7,6.7,10.2,10.3,10.6,10.7c0.4,0.4,3.6,3.6,9.7,9.8l4.7,4.8h-5.3c-7.6-7.7-12-12.1-13.1-13.3c-6.6-6.7-10-10.1-10.2-10.3h-12.5
			v23.5c0,0,0,0,0,0h-3.8c0,0,0,0,0,0V1.2c0,0,0,0,0,0H167.8 M158.4,24.6h9.1c2.7,0,5-0.9,7-2.8c0.7-0.7,1.1-1.3,1.4-1.8
			c1-1.6,1.5-3.4,1.5-5.2c0-2.3-0.8-4.3-2.3-6.2c-0.7-0.8-1.2-1.2-1.5-1.4c-1.8-1.4-3.8-2-6-2h-9.3V24.6 M167.8,1h-13.3h-0.3l0,0.3
			v50.7v0.3l0.3,0h3.8h0.3l0-0.3V28.6h12.2c0.6,0.6,3.9,4,10.1,10.2c1.2,1.2,5.7,5.8,13.1,13.3l0.1,0.1h0.1h5.3h0.6l-0.4-0.4
			l-4.7-4.8c-6.5-6.6-9.4-9.5-9.7-9.8c-0.4-0.4-3.9-3.9-10.4-10.5c0.5-0.3,0.9-0.6,1.2-0.9c0.3-0.2,0.9-0.7,1.7-1.6
			c0.6-0.7,1.2-1.4,1.5-1.9c1.4-2.4,2.1-4.8,2.1-7.2v-0.4c0-1.6-0.3-3.3-1-5.1c-0.4-0.9-0.8-1.7-1.4-2.5c-0.3-0.4-0.8-1-1.5-1.8
			c-0.8-0.8-1.4-1.4-2-1.7C173.2,1.8,170.5,1,167.8,1L167.8,1z M158.6,5.3h9c2.1,0,4.1,0.7,5.9,2c0.3,0.2,0.8,0.7,1.4,1.4
			c1.5,1.8,2.2,3.9,2.2,6.1c0,1.8-0.5,3.5-1.5,5.1c-0.3,0.4-0.7,1-1.4,1.7c-1.9,1.8-4.2,2.7-6.8,2.7h-8.9V5.3L158.6,5.3z"/>
	</g>
	<g>
		<polygon points="223.9,43.4 223.9,43.3 223.9,9.9 224.1,9.9 228,9.9 228,10.1 228,43.4 227.9,43.4 		"/>
		<path d="M227.9,10C227.9,10,227.9,10,227.9,10l0,33.3c0,0,0,0,0,0h-3.8c0,0,0,0,0,0V10.1c0,0,0,0,0,0H227.9 M227.9,9.8h-3.8h-0.3
			l0,0.3v33.2v0.3l0.3,0h3.8h0.3l0-0.3V10.1V9.8L227.9,9.8L227.9,9.8z"/>
	</g>
	<g>
		<path d="M276.9,52.6h-0.2v-0.1l-0.7-1.3l-1.7-3.4c-0.2-0.5-2.8-5.8-7.6-15.4l0-0.1c0,0,0.3-0.5,0.3-0.6c0.4-0.9,2.9-5.9,7.3-15
			c4.5-9.2,7-14.2,7.1-14.5c0.6-1.3,0.6-1.3,0.7-1.3h20l-5,10.3c-4.5,9.3-6.7,13.7-6.8,14c-0.1,0.2-2.4,5-7.1,14.4
			c-4.1,8.4-6.2,12.7-6.3,12.9v0.1L276.9,52.6z M276.9,43.7l3.8-7.7c0.2-0.5,2.7-5.4,7.3-14.9c0.2-0.4,3-6.1,8-16.3h-11.3l-5.5,11.1
			c-0.1,0.2-2.6,5.4-8,16.3C274.6,38.9,276.4,42.8,276.9,43.7z M264.1,26.5l-0.2-0.5l-5.1-10.4c-0.2-0.3-2.6-5.2-7.2-14.7l-0.1-0.2
			h25.3L276.7,1c-4.2,8.6-6.4,13.1-6.6,13.6l-5.8,11.9H264.1z M257.9,4.8c0,0.1,0.1,0.1,0.1,0.1l6.2,12.8l6.3-12.9H257.9z"/>
		<path d="M302.1,1l-5,10.1c-4.4,9.1-6.7,13.7-6.8,14c-0.1,0.2-2.4,5-7.1,14.4c-4.2,8.6-6.3,12.9-6.3,12.9h0c0,0,0,0,0,0
			s-0.2-0.4-0.7-1.3l-1.7-3.4c-0.2-0.4-2.7-5.6-7.6-15.4c0.2-0.3,0.3-0.5,0.3-0.5c0.4-0.9,2.9-5.9,7.3-15c4.6-9.4,7-14.2,7.1-14.5
			c0.4-0.8,0.6-1.3,0.6-1.3H302.1 M276.9,44l3.9-7.9c0.2-0.5,2.7-5.4,7.3-14.9c0.2-0.4,2.9-5.9,8.1-16.5v0h-11.5c0,0,0,0-0.1,0.1
			l-5.4,11.1c-0.1,0.2-2.8,5.7-8,16.3C274.8,39.8,276.8,43.7,276.9,44 M276.6,1c-4.2,8.6-6.4,13.1-6.6,13.6l-5.8,11.8c0,0,0,0,0,0
			s-0.1-0.1-0.2-0.4l-5.1-10.4c-0.2-0.3-2.6-5.2-7.2-14.7h0H276.6L276.6,1 M270.7,4.7h-13c0.1,0.2,0.2,0.3,0.2,0.3l6.3,13
			C264.2,17.9,266.4,13.5,270.7,4.7 M302.5,0.7h-0.4h-19.8c-0.2,0-0.2,0-0.9,1.4c-0.2,0.3-4,8.1-7.1,14.5c-4.5,9.1-6.9,14.1-7.3,15
			c0,0-0.1,0.2-0.3,0.5l-0.1,0.1l0.1,0.1c4.7,9.6,7.3,15,7.6,15.4l1.7,3.4l0.6,1.3v0.2l0.3,0h0.3l0-0.2c0.1-0.2,1.3-2.7,6.3-12.9
			c4.6-9.4,7-14.3,7.1-14.4c0.1-0.3,2.3-4.7,6.8-14l5-10.1L302.5,0.7L302.5,0.7z M284.8,4.9h11c-5,10.1-7.7,15.7-7.9,16.2
			c-4.3,8.7-7.1,14.4-7.3,14.9l-3.6,7.5c-0.6-1.3-2.5-5.2-5.5-11.2c5.4-11,7.8-16,7.9-16.2L284.8,4.9L284.8,4.9z M277,0.7h-0.4h0
			h-24.8h-0.4l0.1,0.4c4.7,9.6,7,14.4,7.2,14.7l5.1,10.4l0.2,0.4l0.1,0.1h0.2h0.2l0.1-0.1l5.8-11.8c0.2-0.5,2.5-5,6.6-13.6L277,0.7
			L277,0.7z M258.1,4.9h12.2l-6.1,12.5L258.1,4.9L258.1,4.9z"/>
	</g>
	<g>
		<polygon points="309,52.1 308.9,51.9 308.9,48 309.1,48 314.7,48 314.7,29.2 314.7,29.2 314.7,23.8 314.7,23.6 314.7,5.2 309,5.2 
			308.9,5 308.9,1.2 309.1,1.1 324.4,1.1 324.5,1.3 324.5,5.2 324.3,5.2 318.7,5.2 318.7,24.2 318.8,24.3 318.8,28.3 318.7,28.3 
			318.7,48 324.4,48 324.5,48.1 324.5,52 324.3,52.1 		"/>
		<path d="M324.3,1.2C324.3,1.2,324.3,1.3,324.3,1.2l0,3.8c0,0,0,0,0,0h-5.7v19.2h0v3.8h0v20h5.7c0,0,0,0,0,0v3.8c0,0,0,0,0,0h-15.2
			c0,0,0,0,0,0v-3.8c0,0,0,0,0,0h5.7V29.3h0v-5.7h0V5.1h-5.7c0,0,0,0,0,0V1.3c0,0,0,0,0,0H324.3 M324.3,1h-15.2h-0.3l0,0.3V5v0.3
			l0.3,0h5.4v18.3v0.3h0v5.2l0,0.3v18.6h-5.4h-0.3l0,0.3v3.8v0.3l0.3,0h15.2h0.3l0-0.3v-3.8v-0.3l-0.3,0h-5.4V28.4l0-0.3v-3.8v-0.3
			h0V5.3h5.4h0.3l0-0.3V1.3V1L324.3,1L324.3,1z"/>
	</g>
	<g>
		<path d="M335.5,52.1l0-0.2V1.4l0.2,0h3.9l0,0.2v29.6c0.4,0.2,2.5,1.1,12.7,5.6c9.4,4.2,28.4,12.6,28.4,12.6c4.4,2,5.4,2.4,5.5,2.4
			l0.1,0l0,0.2l-0.1,0H335.5z M367.5,48l-10.9-4.8c0,0-0.9-0.4-8.6-3.8c-0.1,0-1.3-0.6-8.5-3.8V48H367.5z"/>
		<path d="M339.4,1.5C339.4,1.5,339.4,1.5,339.4,1.5l0,29.7c0,0,4.3,1.9,12.8,5.7c9.9,4.4,14.9,6.6,14.9,6.6l13.4,6
			c3.6,1.6,5.4,2.4,5.5,2.4v0h-50.5c0,0,0,0,0,0V1.5c0,0,0,0,0,0H339.4 M339.4,48.1h28.7l-11.4-5.1c0,0-2.9-1.3-8.6-3.8
			c0,0-2.9-1.3-8.6-3.9V48.1 M339.4,1.2h-3.8h-0.3l0,0.3v50.4v0.3l0.3,0h50.5h0.3v-0.3v-0.2l-0.2-0.1c-0.1,0-0.9-0.4-5.5-2.4
			l-13.4-6c-0.1,0-9.4-4.2-14.9-6.6c-9.6-4.3-12-5.3-12.6-5.6V1.5V1.2L339.4,1.2L339.4,1.2z M339.7,47.9V35.8c6.6,2.9,8,3.6,8.3,3.7
			l0,0l0,0c7.6,3.4,8.6,3.8,8.6,3.8l10.3,4.6H339.7L339.7,47.9z"/>
	</g>
	<g>
		<path d="M396.1,52.1l0-0.2V1.4l0.2,0h3.9l0,0.2v29.6c0.4,0.2,2.5,1.1,12.7,5.6c9.4,4.2,28.4,12.6,28.4,12.6c4.4,2,5.4,2.4,5.5,2.4
			l0.1,0l0,0.2l-0.1,0H396.1z M428.1,48l-10.9-4.8c0,0-0.9-0.4-8.6-3.8c-0.1,0-1.3-0.6-8.5-3.8V48H428.1z"/>
		<path d="M400,1.5C400,1.5,400,1.5,400,1.5l0,29.7c0,0,4.3,1.9,12.8,5.7c9.9,4.4,14.9,6.6,14.9,6.6l13.4,6c3.6,1.6,5.4,2.4,5.5,2.4
			v0h-50.5c0,0,0,0,0,0V1.5c0,0,0,0,0,0H400 M400,48.1h28.7l-11.4-5.1c0,0-2.9-1.3-8.6-3.8c0,0-2.9-1.3-8.6-3.9V48.1 M400,1.2h-3.8
			H396l0,0.3v50.4v0.3l0.3,0h50.5h0.3v-0.3v-0.2l-0.2-0.1c-0.1,0-0.9-0.4-5.5-2.4l-13.4-6c-0.1,0-9.4-4.2-14.9-6.6
			c-9.6-4.3-12-5.3-12.6-5.6V1.5V1.2L400,1.2L400,1.2z M400.3,47.9V35.8c6.6,2.9,8,3.6,8.3,3.7l0,0l0,0c7.6,3.4,8.6,3.8,8.6,3.8
			l10.3,4.6H400.3L400.3,47.9z"/>
	</g>
	<g>
		<path d="M487.4,52.1c-0.1,0-0.1,0-0.7-1.3c-0.1-0.3-2.6-5.3-7.1-14.5c-4.5-9.1-6.9-14.1-7.3-15c0,0-0.3-0.6-0.3-0.6l0-0.1
			c4.8-9.8,7.3-15,7.6-15.4l1.7-3.4c0.5-1,0.6-1.3,0.7-1.3V0.3l0.1,0h0.1l0,0.1c0,0.1,1.2,2.4,6.3,12.8c4.6,9.4,7,14.3,7.1,14.4
			c0.1,0.3,2.4,4.8,6.8,14l5,10.3H487.4z M476.4,20.7c5.3,10.9,7.9,16.1,8,16.3l5.4,11.1l11.3,0c-5.1-10.4-7.8-15.9-8-16.3
			c-4.6-9.5-7.1-14.4-7.3-14.9L482,9.2C481.5,10.2,479.6,14,476.4,20.7z M456.7,52.1l0.1-0.2c4.6-9.4,7-14.4,7.2-14.7l5.1-10.4
			c0.2-0.4,0.2-0.5,0.3-0.5h0.1l5.8,11.9c0.2,0.5,2.4,5,6.6,13.6l0.1,0.2H456.7z M475.6,48.1l-6.3-12.9L463,48c0,0,0,0-0.1,0.1
			H475.6z"/>
		<path d="M482,0.5c0,0,2.1,4.3,6.3,12.9c4.6,9.4,7,14.3,7.1,14.4c0.1,0.3,2.4,4.9,6.8,14l5,10.1h-19.8c0,0-0.2-0.4-0.6-1.3
			c-0.1-0.3-2.5-5.1-7.1-14.5c-4.5-9.1-6.9-14.1-7.3-15c0,0-0.1-0.2-0.3-0.5c4.8-9.8,7.3-15,7.6-15.4l1.7-3.4
			C481.8,0.9,482,0.5,482,0.5L482,0.5 M489.7,48.3h11.5v0c-5.2-10.5-7.8-16-8.1-16.5c-4.6-9.5-7.1-14.4-7.3-14.9L482,8.9
			c-0.1,0.3-2.1,4.2-5.8,11.8c5.2,10.7,7.9,16.1,8,16.3l5.4,11.1C489.7,48.2,489.7,48.3,489.7,48.3 M469.3,26.5l5.8,11.8
			c0.2,0.5,2.4,5,6.6,13.6h0h-24.8h0c4.6-9.5,7-14.4,7.2-14.7l5.1-10.4C469.2,26.7,469.2,26.5,469.3,26.5 M462.8,48.3h13
			c-4.3-8.8-6.5-13.2-6.5-13.3l-6.3,13C462.9,48,462.9,48.1,462.8,48.3 M482.3,0.2H482h0h-0.3v0.2c0,0.1-0.2,0.4-0.6,1.3l-1.7,3.4
			c-0.2,0.4-2.8,5.6-7.6,15.4l-0.1,0.1l0.1,0.1c0.2,0.3,0.3,0.5,0.3,0.5c0.4,0.9,2.9,5.9,7.3,15c3.1,6.4,6.9,14.2,7.1,14.5
			c0.7,1.4,0.7,1.4,0.9,1.4h19.8h0.4l-0.2-0.4l-5-10.1c-4.5-9.2-6.7-13.7-6.8-14c-0.1-0.2-2.5-5-7.1-14.4
			c-4.9-9.9-6.1-12.5-6.3-12.8V0.2L482.3,0.2z M476.5,20.7c3-6.2,4.9-10,5.5-11.2l3.6,7.5c0.3,0.5,3.1,6.2,7.3,14.9
			c0.2,0.4,2.9,5.9,7.9,16.2h-11l-5.4-11.1C484.3,36.7,481.9,31.7,476.5,20.7L476.5,20.7z M469.4,26.3h-0.2c-0.2,0-0.3,0.2-0.4,0.5
			l-5.1,10.4c-0.2,0.3-2.5,5.1-7.2,14.7l-0.2,0.4h0.4h24.9h0.4l-0.1-0.4c-4.2-8.6-6.4-13.1-6.6-13.6l-5.8-11.8L469.4,26.3
			L469.4,26.3z M463.2,48l6.1-12.5c0.2,0.4,0.5,0.9,0.8,1.7l5.3,10.8H463.2L463.2,48z"/>
	</g>
</g>
</svg>
