<?xml version="1.0" encoding="utf-8"?>
<!-- Generator: Adobe Illustrator 22.1.0, SVG Export Plug-In . SVG Version: 6.00 Build 0)  -->
<svg version="1.1" id="Ebene_1" xmlns="http://www.w3.org/2000/svg" xmlns:xlink="http://www.w3.org/1999/xlink" x="0px" y="0px"
	 viewBox="0 0 627 147" style="enable-background:new 0 0 627 147;" xml:space="preserve">
<style type="text/css">
	.st0{fill:#FFFFFF;}
</style>
<g>
	<rect x="37" y="41" class="st0" width="211" height="61"/>
	<rect x="326" y="41" class="st0" width="268" height="64"/>
	<g>
		<path d="M124.6,57.7c-1-1-1.8-1.7-2.5-2.1c-1.2-0.9-2.3-1.6-3.3-2.1c-0.6-0.3-1-0.5-1.2-0.6c-3.9,8-7.1,14.4-9.5,19.2
			c-5.4,11-8.3,16.9-8.7,17.6l-0.8,1.6c0.5,0.3,1.3,0.7,2.2,1.1c2.8,1.1,5.5,1.7,8.2,1.7h0.6c3,0,6.1-0.7,9.1-2.2
			c1.1-0.5,2.3-1.3,3.6-2.2c0.6-0.5,1.3-1.1,2-1.8c0.9-0.9,1.6-1.6,1.9-2.1c0.9-1.2,1.5-2.2,1.9-3c1.8-3.2,2.6-6.6,2.6-10.2v-0.1
			c0-4.5-1.3-8.6-4-12.5C126.3,59.4,125.6,58.6,124.6,57.7z"/>
		<path d="M427,85.3c0,0-2.9-1.3-8.6-3.9v12.7h28.7l-11.4-5.1C435.6,89,432.7,87.8,427,85.3z"/>
		<path d="M350.1,78.2c3.7,7.6,5.6,11.5,5.8,11.8l3.9-7.9c0.2-0.5,2.7-5.4,7.3-14.9c0.2-0.4,2.9-5.9,8.1-16.5v0h-11.5
			c0,0,0,0-0.1,0.1l-5.4,11.1C358,62.1,355.4,67.5,350.1,78.2z"/>
		<path d="M145.1,76.1c0,4.3,1.4,8.2,4.3,11.6c0.9,1,1.6,1.7,2.3,2.2c1,0.8,2,1.5,3.1,2c2.7,1.4,5.5,2.1,8.4,2.1
			c3.4,0,6.7-1,9.6-3.1c0.6-0.4,1.3-1,2.1-1.8c0.9-0.9,1.4-1.6,1.7-2.1c2-2.9,3-6,3-9.5V51h-34.5V76.1z"/>
		<path d="M282,147.6V-0.2H0v147.8H282z M195.5,47.2C195.5,47.2,195.6,47.2,195.5,47.2l13.3,0c2.7,0,5.2,0.8,7.6,2.5
			c0.5,0.3,1.2,0.9,1.9,1.7c0.7,0.8,1.2,1.3,1.5,1.8c0.5,0.8,1,1.7,1.3,2.5c0.7,1.7,1,3.3,1,5V61c0,2.4-0.7,4.8-2.1,7.1
			c-0.4,0.6-0.8,1.2-1.5,1.9c-0.8,0.8-1.4,1.4-1.7,1.6c-0.4,0.3-0.9,0.6-1.5,1c6.7,6.7,10.2,10.3,10.6,10.7c0.4,0.4,3.6,3.6,9.7,9.8
			l4.7,4.8h-5.3c-7.6-7.7-12-12.1-13.1-13.3c-6.6-6.7-10-10.1-10.2-10.3h-12.5v23.5c0,0,0,0,0,0h-3.8c0,0,0,0,0,0V47.2z M141.3,47.2
			C141.3,47.2,141.3,47.2,141.3,47.2l42.1,0c0,0,0,0,0,0v30.5c0,3.8-1,7.3-3.1,10.7c-0.5,0.7-1.1,1.6-1.9,2.5c-0.8,0.9-1.5,1.6-2,2
			c-1.1,0.9-1.9,1.6-2.7,2c-3.4,2-6.9,3-10.5,3H163c-4.3,0-8.3-1.2-12-3.7c-0.8-0.5-1.7-1.3-2.7-2.2c-1.1-1-1.7-1.8-2-2.2
			c-0.6-0.8-1.2-1.6-1.7-2.3c-2.2-3.6-3.2-7.3-3.2-11.3V47.2z M115.7,48.1c2.4,0.8,4.4,1.5,5.8,2.4c0.9,0.4,1.8,1.1,2.8,1.8
			c0.7,0.5,1.5,1.2,2.5,2.1c1.2,1.2,2.1,2.1,2.4,2.7c1,1.3,1.7,2.4,2.1,3.2c0.6,1.1,1.2,2.3,1.7,3.8c1,2.8,1.5,5.5,1.5,8.3v0.3
			c0,4.3-1.1,8.4-3.3,12.3c-0.6,1.1-1.4,2.2-2.4,3.5c-1.2,1.5-2.4,2.7-3.8,3.8c-1,0.8-1.9,1.4-2.6,1.8c-4.2,2.5-8.5,3.8-13.1,3.8
			h-0.4c-4.3,0-8.4-1.1-12.3-3.3c-0.7-0.4-1.7-1.1-3-2v0c0.8-1.5,3.4-6.8,7.8-15.9c5.2-10.5,7.8-15.8,7.8-15.9
			c0.4-0.7,2.4-4.8,6.1-12.4C115.6,48.2,115.7,48.1,115.7,48.1z M90.1,56.1c0.8-0.9,1.7-1.8,2.8-2.8c2.7-2.2,5.5-3.8,8.6-4.8
			c0.9-0.3,2.1-0.6,3.5-0.8c0.7-0.2,2.5-0.4,5.4-0.6c0,0-1.9,3.8-5.7,11.4c-0.2,0.4-2.4,4.8-6.6,13.3c-4.3,8.8-6.7,13.6-7.2,14.4
			c-0.5,1.1-1,2-1.3,2.7c-1.4-2.2-2.3-3.6-2.7-4.3c-2-3.8-3.1-7.8-3.1-11.9v-0.2c0-4.6,1.2-9,3.7-13.1
			C88.2,58.5,89.1,57.4,90.1,56.1z M84.9,47.1c-1.9,2.4-5.3,6.5-10.2,12.5l-5.1,6.2c-3.4,4.1-5,6.2-5.1,6.2v25.9c0,0,0,0,0,0H61
			c0,0,0,0,0,0V72.1c0,0-0.2-0.2-0.5-0.6c-0.2-0.2-3-3.6-8.3-10.2c-7.5-9.2-11.3-13.9-11.5-14.2H84.9z"/>
		<path d="M216.9,66c1-1.6,1.5-3.4,1.5-5.2c0-2.3-0.8-4.3-2.3-6.2c-0.7-0.8-1.2-1.2-1.5-1.4c-1.8-1.4-3.8-2-6-2h-9.3v19.5h9.1
			c2.7,0,5-0.9,7-2.8C216.2,67,216.6,66.4,216.9,66z"/>
		<path d="M336.7,50.7c0.1,0.2,0.2,0.3,0.2,0.3l6.3,13c0,0,2.2-4.5,6.5-13.3H336.7z"/>
		<path d="M48.4,50.8c6.3,7.7,9.5,11.6,9.7,11.8c3,3.7,4.6,5.7,4.7,5.8c7.2-8.8,10.9-13.4,11.1-13.6c0.1-0.1,1.2-1.4,3.3-4.1H48.4z"
			/>
		<path d="M564.9,62.8l-3.9-7.9c-0.1,0.3-2.1,4.2-5.8,11.8c5.2,10.7,7.9,16.1,8,16.3l5.4,11.1c0,0.1,0,0.1,0.1,0.1h11.5v0
			c-5.2-10.5-7.8-16-8.1-16.5C567.5,68.3,565.1,63.3,564.9,62.8z"/>
		<path d="M627,147.6V-0.2H289v147.8H627z M558.6,51.3l1.7-3.4c0.4-0.9,0.7-1.3,0.7-1.3h0c0,0,2.1,4.3,6.3,12.9
			c4.6,9.4,7,14.3,7.1,14.4c0.1,0.3,2.4,4.9,6.8,14l5,10.1h-19.8c0,0-0.2-0.4-0.6-1.3c-0.1-0.3-2.5-5.1-7.1-14.5
			c-4.5-9.1-6.9-14.1-7.3-15c0,0-0.1-0.2-0.3-0.5C555.9,56.8,558.4,51.7,558.6,51.3z M543,83.3l5.1-10.4c0.1-0.3,0.2-0.4,0.2-0.4
			l5.8,11.8c0.2,0.5,2.4,5,6.6,13.6h-24.9C540.4,88.5,542.8,83.6,543,83.3z M475.2,47.5C475.2,47.5,475.2,47.5,475.2,47.5l3.8,0
			c0,0,0,0,0,0v29.7c0,0,4.3,1.9,12.8,5.7c9.9,4.4,14.9,6.6,14.9,6.6l13.4,6c3.6,1.6,5.4,2.4,5.5,2.4v0h-50.5c0,0,0,0,0,0V47.5z
			 M414.6,47.5C414.6,47.5,414.6,47.5,414.6,47.5l3.8,0c0,0,0,0,0,0v29.7c0,0,4.3,1.9,12.8,5.7c9.9,4.4,14.9,6.6,14.9,6.6l13.4,6
			c3.6,1.6,5.4,2.4,5.5,2.4v0h-50.5c0,0,0,0,0,0V47.5z M388,94.1C388,94.1,388.1,94.1,388,94.1l5.7,0V75.3h0v-5.7h0V51.1h-5.7
			c0,0,0,0,0,0v-3.8c0,0,0,0,0,0h15.2c0,0,0,0,0,0V51c0,0,0,0,0,0h-5.7v19.2h0v3.8h0v20h5.7c0,0,0,0,0,0v3.8c0,0,0,0,0,0h-15.2
			c0,0,0,0,0,0V94.1z M361.3,47h19.8l-5,10.1c-4.4,9.1-6.7,13.7-6.8,14c-0.1,0.2-2.4,5-7.1,14.4c-4.2,8.6-6.3,12.9-6.3,12.9h0
			c0,0,0,0,0,0s-0.2-0.4-0.7-1.3l-1.7-3.4c-0.2-0.4-2.7-5.6-7.6-15.4c0.2-0.3,0.3-0.5,0.3-0.5c0.4-0.9,2.9-5.9,7.3-15
			c4.6-9.4,7-14.2,7.1-14.5C361.1,47.4,361.3,47,361.3,47z M355.6,47c-4.2,8.6-6.4,13.1-6.6,13.6l-5.8,11.8c0,0,0,0,0,0
			s-0.1-0.1-0.2-0.4l-5.1-10.4c-0.2-0.3-2.6-5.2-7.2-14.7H355.6z"/>
		<path d="M541.9,93.9c0,0-0.1,0.1-0.2,0.3h13c-4.3-8.8-6.5-13.2-6.5-13.3L541.9,93.9z"/>
		<path d="M103.8,51.9c-0.8,0.2-1.6,0.5-2.4,0.8c-4.9,2-8.6,5.3-11.1,9.9c-1.7,3.2-2.5,6.6-2.5,10.1v0.1c0,2.8,0.6,5.6,1.7,8.3
			c0.1-0.2,2.6-5.1,7.3-14.7C101,57.7,103.4,52.9,103.8,51.9L103.8,51.9z"/>
		<path d="M487.7,85.3c0,0-2.9-1.3-8.6-3.9v12.7h28.7l-11.4-5.1C496.2,89,493.4,87.8,487.7,85.3z"/>
	</g>
	<rect x="282" y="-0.2" class="st0" width="7" height="147.8"/>
</g>
</svg>
