<?xml version="1.0" standalone="no"?>
<!DOCTYPE svg PUBLIC "-//W3C//DTD SVG 20010904//EN"
 "http://www.w3.org/TR/2001/REC-SVG-20010904/DTD/svg10.dtd">
<svg version="1.0" xmlns="http://www.w3.org/2000/svg"
 width="1047.000000pt" height="1047.000000pt" viewBox="0 0 1047.000000 1047.000000"
 preserveAspectRatio="xMidYMid meet">
<metadata>
Created by potrace 1.11, written by Peter Selinger 2001-2013
</metadata>
<g transform="translate(0.000000,1047.000000) scale(0.100000,-0.100000)"
fill="#000000" stroke="none">
<path d="M10 5230 l0 -5230 5219 0 c4365 0 5220 2 5230 14 8 9 11 1397 11
5230 l0 5216 -5230 0 -5230 0 0 -5230z m7464 4601 c-5 -5 -60 -37 -122 -71
l-113 -63 -30 29 -29 28 -35 -35 -35 -34 108 -108 108 -107 34 35 34 35 -29
30 c-16 16 -27 32 -24 34 2 2 46 27 97 56 l94 53 103 -103 104 -103 -16 -31
c-9 -17 -33 -62 -55 -99 l-40 -69 -32 31 -32 31 -34 -35 -34 -35 107 -107 107
-107 35 34 35 34 -25 26 c-14 14 -25 30 -25 35 0 5 77 148 171 317 l172 308
329 0 330 0 105 -100 c164 -156 228 -192 333 -185 90 7 164 51 294 176 l114
109 131 0 131 0 0 -64 0 -64 -197 -110 c-109 -61 -230 -128 -270 -149 l-72
-38 -28 27 -27 28 -33 -32 -33 -32 107 -108 107 -108 33 32 33 32 -31 32 -30
31 98 56 98 57 105 -105 105 -105 -40 -75 c-22 -41 -48 -85 -57 -97 l-17 -23
-31 30 -30 29 -33 -32 -32 -32 107 -107 107 -107 31 29 c35 33 42 14 8 -22
l-21 -23 21 -23 c21 -22 22 -32 22 -207 l0 -185 -93 93 -93 92 -34 -35 -34
-35 31 -32 31 -33 -284 -250 c-157 -137 -294 -256 -305 -264 -18 -13 -23 -11
-54 19 l-35 34 -35 -34 -35 -34 117 -118 118 -118 34 35 35 35 -34 35 c-34 35
-34 35 -15 54 18 16 415 365 474 415 13 12 22 17 19 11 -3 -5 -72 -146 -153
-313 l-149 -303 41 -40 40 -41 169 85 c93 47 186 92 207 100 l37 16 0 -67 0
-67 -121 -138 -122 -138 -34 33 -33 32 -35 -35 -35 -34 115 -115 115 -114 35
34 35 34 -34 36 -34 35 74 83 74 82 0 -3390 0 -3390 -200 0 c-162 0 -208 3
-238 16 -43 19 -60 9 148 93 l145 59 3 -44 3 -44 50 0 49 0 0 574 0 575 -32
-1 c-61 0 -68 -5 -68 -54 l0 -44 -400 0 -400 0 0 50 0 50 -47 -2 -48 -3 -3
-203 -2 -202 50 0 50 0 0 45 0 45 91 0 c79 0 95 -3 125 -24 l36 -24 -69 -40
c-37 -21 -115 -66 -173 -99 l-105 -61 -3 -131 -3 -132 53 3 53 3 3 45 3 45
211 122 211 121 31 -18 c99 -57 332 -193 336 -197 4 -4 2 -125 -3 -128 -1 -1
-133 -59 -293 -128 l-291 -127 -107 0 -106 0 0 50 0 50 -50 0 -50 0 0 -120 0
-120 -2880 0 -2881 0 117 133 c64 72 123 139 130 147 12 12 18 10 44 -15 l30
-29 35 35 35 34 -93 93 -94 94 -321 -161 c-177 -89 -322 -159 -322 -156 0 2
73 147 161 321 l162 316 -96 96 -97 96 -35 -34 -35 -34 32 -33 c17 -18 30 -34
27 -36 -2 -3 -139 -122 -303 -266 l-299 -262 -37 36 -36 35 -34 -35 -34 -35
117 -117 117 -117 35 34 35 34 -35 36 -35 36 226 199 c125 110 242 213 261
229 l35 29 -63 -124 c-90 -180 -239 -490 -239 -497 0 -3 17 -23 37 -44 l37
-38 -214 0 -215 0 -87 87 -88 87 -35 -34 -35 -34 32 -33 31 -32 -24 -20 c-23
-19 -39 -20 -277 -21 l-252 0 19 38 c10 20 69 127 130 236 l112 200 -58 58
c-32 32 -63 57 -69 56 -6 -2 -192 -104 -412 -227 -335 -186 -405 -221 -417
-211 -11 9 -15 33 -15 84 l0 71 38 20 c20 11 107 90 193 175 191 191 224 243
224 360 0 110 -25 150 -224 353 l-165 167 -33 -32 -33 -32 0 184 0 185 78 -78
78 -77 34 35 34 35 -27 28 -27 28 225 407 c124 223 225 410 225 415 0 4 -26
33 -57 64 l-58 57 -250 -138 -250 -139 -3 247 c-2 223 -1 248 15 267 10 12
479 471 1041 1021 l1024 998 -1041 3 -1041 2 0 80 0 79 123 3 122 3 3 48 3 47
-50 0 -51 0 0 327 c0 179 3 324 6 321 3 -4 79 -172 168 -375 l163 -368 74 0
74 0 3 453 2 452 45 0 45 0 0 50 0 50 -160 -1 -160 0 0 -50 0 -49 45 0 45 0 1
-300 c1 -368 1 -339 0 -347 -1 -5 -74 162 -163 370 l-161 377 -89 0 c-52 0
-88 4 -88 10 0 6 85 10 235 10 l236 0 -3 113 -3 112 -55 0 -55 0 -3 -57 -3
-58 -114 0 -115 0 0 400 0 400 45 0 45 0 0 45 0 45 -105 0 -105 0 0 1080 0
1080 3427 0 c1957 0 3423 -4 3417 -9z m453 2 c-50 -91 -131 -223 -136 -223 -3
0 -42 36 -85 79 l-79 79 39 24 c22 14 48 30 59 36 22 12 209 17 202 5z m1395
-53 c-75 -70 -133 -100 -191 -100 -57 0 -105 27 -176 99 l-59 61 244 0 245 -1
-63 -59z m516 -375 l-3 -56 -69 69 -68 70 68 41 69 41 3 -55 c2 -30 2 -80 0
-110z m2 -462 l0 -68 -25 26 -26 25 23 42 c13 23 24 42 26 42 1 0 2 -30 2 -67z
m0 -834 l0 -230 -152 -73 c-84 -41 -155 -72 -157 -70 -5 4 299 604 307 604 1
0 2 -104 2 -231z m-9190 -1954 c0 -263 -3 -405 -10 -405 -7 0 -10 142 -10 405
0 263 3 405 10 405 7 0 10 -142 10 -405z m349 -3256 c-56 -96 -108 -185 -116
-198 l-15 -23 -79 78 c-44 43 -78 83 -76 88 3 9 380 235 385 231 1 -1 -43 -80
-99 -176z m-189 -321 c0 -14 -101 -188 -108 -188 -4 0 -22 14 -39 30 l-33 30
0 157 0 158 90 -90 c50 -49 90 -93 90 -97z m-148 -740 l-32 -33 0 65 0 65 32
-33 33 -32 -33 -32z m276 -237 c36 -61 35 -122 -3 -187 -27 -47 -280 -314
-297 -314 -4 0 -8 116 -8 257 l0 258 77 77 77 78 64 -63 c35 -34 75 -82 90
-106z m8763 -83 c1 -47 1 -123 0 -131 -1 -8 -85 36 -221 115 l-65 38 143 0
c140 0 142 0 143 -22z m-8310 -545 c-32 -54 -84 -142 -115 -195 -32 -54 -60
-98 -64 -98 -4 0 -42 35 -85 78 -60 60 -75 81 -65 89 7 5 58 36 113 68 55 32
136 80 180 106 44 27 83 49 87 49 3 0 -20 -44 -51 -97z m1717 -61 c-7 -10 -65
-78 -128 -150 l-115 -131 -175 0 -175 0 300 149 c165 81 301 149 303 149 2 1
-3 -7 -10 -17z m-2078 -207 l74 -75 -155 0 c-143 0 -157 2 -174 20 -10 11 -16
22 -14 24 8 7 184 106 189 106 3 0 39 -34 80 -75z"/>
<path d="M8417 9732 c-15 -15 -27 -32 -27 -37 0 -5 13 -23 30 -40 l30 -31
-285 -284 -285 -284 -35 34 -35 34 -35 -35 -35 -35 167 -166 c201 -198 240
-222 353 -223 109 0 169 35 332 194 198 192 249 272 249 389 0 99 -41 163
-224 350 -89 89 -164 162 -167 162 -3 0 -18 -13 -33 -28z m199 -285 c155 -162
144 -228 -75 -450 -249 -254 -318 -269 -487 -105 l-75 72 278 278 c153 153
281 278 284 278 4 0 38 -33 75 -73z"/>
<path d="M1955 9730 c-118 -38 -185 -127 -205 -270 -13 -88 -12 -357 1 -449
17 -124 76 -209 173 -253 44 -20 71 -23 206 -26 234 -6 325 27 389 140 45 78
54 152 49 408 -3 204 -6 230 -26 281 -28 71 -80 124 -151 158 -52 24 -68 26
-216 28 -137 3 -169 0 -220 -17z m283 -110 c36 -16 47 -29 70 -77 l27 -58 0
-250 c0 -247 0 -251 -25 -299 -32 -65 -66 -88 -133 -94 -94 -8 -161 43 -188
141 -14 52 -13 466 2 519 16 60 45 97 93 119 53 24 100 24 154 -1z"/>
<path d="M4699 9737 c-61 -17 -103 -49 -125 -94 -23 -48 -31 -178 -14 -240 18
-63 90 -137 197 -202 178 -109 188 -119 197 -207 12 -100 -39 -158 -135 -156
-27 0 -54 4 -59 7 -6 3 -10 33 -10 66 l0 59 -110 0 -111 0 3 -102 3 -103 50
-14 c29 -8 121 -16 222 -18 138 -4 182 -2 226 11 104 30 148 94 150 217 1 144
-37 202 -201 305 -165 105 -188 126 -203 195 -21 94 25 168 110 177 l51 5 0
-62 0 -61 110 0 110 0 0 99 0 99 -32 12 c-48 19 -370 23 -429 7z"/>
<path d="M890 9691 l0 -51 45 0 45 0 0 -402 0 -403 -45 2 -45 2 0 -50 0 -50
298 3 c288 3 299 4 350 27 70 32 133 103 158 178 17 51 19 88 19 298 -1 228
-2 243 -24 300 -31 79 -100 147 -173 171 -44 15 -101 18 -340 22 l-288 3 0
-50z m485 -80 c94 -43 108 -85 113 -337 4 -218 -4 -291 -41 -345 -40 -59 -70
-74 -158 -78 l-79 -3 0 391 0 391 63 0 c39 0 77 -7 102 -19z"/>
<path d="M2572 9693 l3 -48 48 -3 47 -3 0 -400 c0 -312 -3 -399 -12 -400 -7 0
-29 -1 -48 -2 -34 -2 -35 -3 -38 -50 l-3 -47 743 2 743 3 0 45 0 45 -47 3 -48
3 1 217 c0 197 2 214 15 187 8 -16 61 -136 118 -265 l103 -235 127 -3 126 -3
0 451 0 450 45 0 45 0 0 50 0 50 -210 0 -210 0 0 -50 0 -50 50 0 50 0 0 -217
c0 -119 -2 -214 -4 -212 -2 2 -54 122 -116 267 l-113 262 -383 0 -384 0 0 -50
0 -50 48 0 47 0 -3 -399 c-2 -368 -4 -399 -20 -403 -34 -9 -42 2 -42 63 l0 59
-105 0 -105 0 0 -55 0 -55 -70 0 -70 0 0 394 0 395 48 3 47 3 3 48 3 47 -216
0 -217 0 4 -47z m1158 -453 c0 -313 -3 -400 -12 -401 -7 0 -48 -1 -91 -1 l-77
-1 -3 401 -2 402 93 0 92 0 0 -400z"/>
<path d="M5180 9690 l0 -50 45 0 45 0 -2 -402 -3 -402 -42 0 -43 0 0 -48 0
-48 210 0 210 0 0 50 0 50 -45 0 c-29 0 -45 4 -46 13 -4 76 5 173 18 193 8 13
18 24 22 24 3 0 48 -74 100 -165 l93 -165 139 0 139 0 -1 50 -2 50 -46 0 -46
1 -122 214 -123 214 96 168 c53 92 102 175 108 185 8 14 24 18 67 18 l56 0
127 -290 126 -290 0 -110 0 -110 -62 -1 c-35 -1 -75 -1 -90 0 -16 0 -28 -2
-28 -7 0 -4 87 -94 193 -200 l193 -192 34 35 34 35 -27 28 c-15 15 -27 31 -27
34 0 6 176 108 187 108 10 0 123 -112 123 -122 0 -4 -24 -50 -53 -102 l-54
-95 -31 32 -32 31 -35 -34 -35 -34 312 -314 c172 -172 339 -330 371 -352 34
-23 79 -43 113 -50 l56 -12 -31 -32 -31 -32 150 -149 150 -149 35 34 35 34
-31 32 -31 32 99 56 98 56 64 -64 c61 -61 63 -64 48 -87 -8 -13 -34 -57 -57
-97 l-42 -74 -32 31 -32 31 -34 -35 -34 -35 274 -275 275 -275 35 35 34 35
-32 33 c-18 18 -32 35 -32 38 0 4 52 52 115 108 142 126 181 159 173 146 -18
-33 -158 -328 -158 -334 0 -10 150 -161 160 -161 4 0 84 36 176 81 143 68 165
76 143 52 -14 -15 -72 -81 -128 -145 -57 -65 -106 -118 -109 -118 -3 0 -20 14
-37 30 l-31 30 -34 -35 -34 -35 141 -143 142 -142 3 -265 c4 -247 5 -269 27
-322 27 -71 95 -135 172 -163 49 -18 79 -20 304 -20 240 0 252 1 309 24 85 34
139 92 165 176 19 61 21 92 21 342 l0 274 -47 -3 -48 -3 -3 -47 -3 -48 -400 0
-399 0 0 47 c0 40 -5 52 -35 83 l-34 35 265 303 266 304 32 -31 32 -31 34 35
34 36 -135 135 -136 136 -232 -117 c-128 -64 -235 -115 -237 -113 -2 2 50 108
114 236 l117 232 -137 137 -137 137 -36 -34 -35 -34 31 -32 31 -32 -44 -40
c-23 -21 -160 -141 -302 -266 l-260 -227 -29 29 -29 30 112 203 c62 112 164
296 226 408 63 111 114 206 114 210 0 3 -45 51 -100 106 -84 84 -103 98 -118
89 -9 -6 -194 -109 -410 -229 l-394 -218 -26 26 -25 26 47 12 c77 19 163 83
307 228 114 115 142 150 174 214 34 70 37 81 33 144 -6 112 -27 142 -262 381
l-210 213 -35 -36 -35 -35 34 -35 34 -36 -285 -284 -284 -285 -37 37 -36 38
145 260 c80 143 162 291 183 330 21 38 59 106 84 150 l45 80 -101 102 c-90 91
-104 101 -122 91 -12 -6 -146 -80 -298 -164 -152 -85 -284 -157 -292 -160 -14
-5 -16 6 -15 87 l0 94 128 290 127 290 37 3 37 3 0 50 0 49 -200 0 -200 0 0
-50 0 -50 44 0 44 0 -61 -155 c-33 -85 -63 -155 -67 -155 -5 0 -80 176 -127
298 -4 8 8 12 41 12 l46 0 0 50 0 50 -580 0 -580 0 0 -50z m462 -82 c-11 -18
-45 -78 -76 -133 l-56 -100 0 133 0 132 76 0 76 0 -20 -32z m1307 -780 c-15
-27 -90 -151 -95 -157 -3 -3 -22 13 -44 34 l-40 39 88 52 c48 29 91 53 95 53
4 1 2 -9 -4 -21z m767 -370 c74 -89 78 -160 14 -256 -55 -82 -284 -303 -347
-336 -86 -43 -155 -31 -224 40 l-33 34 274 275 c151 151 278 275 282 275 3 0
19 -15 34 -32z m412 -800 c-8 -13 -34 -56 -57 -97 l-43 -73 -42 42 c-22 23
-36 44 -31 46 6 2 46 26 90 53 91 56 103 60 83 29z m1544 -2007 c-21 -41 -68
-76 -121 -91 -57 -16 -307 -23 -414 -12 -166 18 -216 64 -225 209 l-5 73 389
2 389 3 3 -74 c2 -56 -1 -81 -16 -110z"/>
<path d="M8825 8751 l-410 -229 -31 29 -30 29 -34 -35 -34 -35 107 -107 107
-107 35 34 35 34 -30 31 -30 31 91 52 c49 29 96 52 102 52 15 0 207 -191 207
-205 0 -6 -24 -51 -53 -102 l-53 -92 -32 32 -32 31 -35 -34 -35 -34 107 -108
108 -108 34 35 35 35 -27 28 -27 28 225 407 c124 224 225 411 225 415 0 4 -26
33 -57 64 l-58 57 -410 -228z m273 -103 c-55 -95 -107 -184 -115 -197 l-15
-23 -79 78 c-43 43 -79 82 -79 86 0 4 44 33 98 64 53 32 137 81 187 111 49 29
93 53 97 53 4 0 -38 -78 -94 -172z"/>
<path d="M921 8699 c-92 -30 -152 -92 -181 -187 -20 -66 -21 -88 -18 -325 l3
-254 35 -69 c40 -79 96 -123 188 -150 80 -24 248 -15 318 15 96 42 153 124
173 251 14 84 14 376 0 459 -21 129 -75 208 -174 253 -73 33 -253 37 -344 7z
m289 -107 c85 -41 103 -115 98 -420 -3 -212 -5 -230 -25 -269 -13 -23 -37 -52
-55 -65 -30 -21 -44 -23 -144 -23 -106 0 -112 1 -147 28 -71 54 -87 123 -87
372 0 247 20 328 91 370 63 37 198 40 269 7z"/>
<path d="M3665 8706 c-98 -30 -136 -86 -143 -207 -9 -153 45 -230 242 -349
127 -75 155 -107 163 -182 10 -98 -27 -147 -125 -163 -46 -7 -138 0 -159 13
-7 4 -13 33 -14 65 l-2 57 -64 0 -63 0 0 -99 0 -99 30 -10 c57 -20 193 -35
279 -30 179 11 251 80 251 244 0 74 -21 138 -60 186 -17 20 -78 67 -138 104
-145 92 -182 122 -198 161 -30 72 -6 175 46 200 35 17 96 23 153 16 l47 -6 0
-58 0 -59 60 0 60 0 0 104 0 103 -57 12 c-74 15 -257 13 -308 -3z"/>
<path d="M1552 8663 c3 -50 3 -49 61 -52 l27 -1 0 -400 0 -400 -45 0 -45 0 0
-50 0 -50 290 0 290 0 0 110 0 110 -60 0 -60 0 0 -55 0 -55 -115 0 -115 0 0
395 0 395 33 1 c17 1 38 1 45 0 8 -1 12 14 12 49 l0 50 -161 0 -160 0 3 -47z"/>
<path d="M2192 8663 l3 -48 40 -2 c22 -1 43 -2 48 -2 4 -1 7 -181 7 -401 l0
-400 -50 0 -50 0 0 -50 0 -50 165 0 165 0 0 50 0 50 -50 0 -50 0 0 400 c0 374
1 400 18 401 84 4 77 0 80 52 l3 47 -166 0 -166 0 3 -47z"/>
<path d="M2610 8662 l0 -49 42 -1 c23 -1 43 -3 44 -5 2 -2 4 -181 4 -398 l1
-394 -45 -3 -46 -3 0 -50 0 -49 160 0 160 0 0 50 0 50 -45 0 -45 0 0 323 c0
181 4 315 9 307 5 -8 80 -176 166 -372 l158 -358 73 0 74 0 0 450 c0 353 3
450 13 451 6 0 28 1 47 2 34 2 35 3 38 50 l3 47 -166 0 -166 0 3 -47 3 -48 43
-1 c23 -1 45 -3 47 -6 3 -3 4 -150 3 -328 l-3 -323 -160 376 -160 377 -127 0
-128 0 0 -48z"/>
<path d="M4152 8663 l3 -48 48 -3 47 -3 0 -400 0 -399 -50 0 -50 0 0 -50 0
-50 165 0 165 0 0 50 0 50 -50 0 -50 0 0 86 c0 86 0 87 47 160 32 51 49 70 55
62 4 -7 58 -102 120 -210 l113 -198 88 0 87 0 0 54 0 55 -47 3 -48 3 -92 160
c-51 88 -104 183 -119 210 l-26 50 101 174 c55 96 104 178 109 183 5 5 28 9
51 10 l41 0 0 49 0 49 -161 0 -160 0 3 -47 3 -48 39 -2 c21 -1 40 -4 41 -5 4
-3 -226 -412 -237 -424 -5 -4 -8 90 -8 209 l0 216 48 3 47 3 3 48 3 47 -166 0
-166 0 3 -47z"/>
<path d="M4902 8663 c3 -47 4 -48 36 -49 18 0 36 -4 41 -10 5 -5 63 -135 130
-288 l121 -279 0 -113 0 -114 -90 0 c-49 0 -90 -3 -90 -7 0 -5 69 -74 154
-155 l153 -147 31 32 32 33 -31 30 -30 31 98 56 98 57 103 -103 c56 -56 102
-106 102 -111 0 -13 -100 -186 -108 -186 -3 0 -19 12 -34 27 l-28 27 -33 -32
-32 -32 108 -107 107 -108 32 32 32 33 -27 28 -27 28 230 414 229 415 -56 57
c-32 32 -60 58 -63 58 -3 0 -156 -83 -339 -185 -184 -102 -345 -185 -358 -185
-23 0 -23 1 -23 110 l0 110 126 288 c69 158 127 288 128 289 1 2 18 4 37 6 33
2 34 4 37 50 l3 47 -156 0 -156 0 3 -47 c3 -47 3 -47 43 -51 22 -2 41 -5 41
-5 2 -3 -165 -429 -169 -433 -2 -2 -43 93 -92 211 -48 119 -85 218 -82 221 3
3 22 6 41 6 l36 0 0 49 0 49 -156 0 -155 0 3 -47z m1037 -832 c-61 -105 -114
-191 -118 -191 -3 0 -42 35 -85 79 l-78 79 193 115 c107 63 195 114 197 112 1
-1 -47 -88 -109 -194z"/>
<path d="M6442 7757 l-32 -33 30 -29 c16 -16 30 -33 30 -39 0 -6 -127 -138
-282 -293 l-283 -283 -35 35 -36 35 -32 -33 -32 -33 177 -176 c158 -156 185
-178 238 -198 47 -17 74 -21 121 -17 97 7 167 51 318 197 198 193 253 282 244
399 -7 101 -42 154 -221 337 -88 90 -163 164 -166 164 -4 0 -21 -15 -39 -33z
m288 -393 c48 -97 15 -162 -179 -355 -240 -241 -298 -252 -462 -92 l-80 77
278 278 278 278 73 -73 c40 -39 81 -90 92 -113z"/>
<path d="M2686 7689 c-82 -12 -139 -48 -166 -105 -31 -63 -37 -155 -15 -230
22 -76 92 -147 225 -227 119 -72 123 -75 149 -117 14 -24 21 -52 21 -88 0
-106 -46 -146 -169 -144 -41 1 -87 4 -103 7 -27 6 -28 9 -28 66 l0 59 -64 0
-64 0 -1 -98 -2 -99 38 -11 c122 -36 322 -40 400 -7 86 36 122 101 123 216 0
144 -41 204 -214 309 -167 103 -207 155 -192 254 12 81 64 115 171 116 79 0
85 -5 85 -72 l0 -59 63 3 62 3 0 100 0 100 -50 12 c-67 17 -197 23 -269 12z"/>
<path d="M1167 7673 c-4 -3 -7 -24 -7 -45 l0 -38 50 0 50 0 0 -405 0 -405 -51
0 -50 0 3 -47 3 -48 163 -3 162 -2 0 50 0 50 -50 0 -50 0 0 405 0 405 50 0 50
0 0 45 0 45 -158 0 c-87 0 -162 -3 -165 -7z"/>
<path d="M1580 7635 l0 -45 50 0 50 0 0 -405 0 -405 -50 0 -50 0 0 -50 0 -50
163 2 162 3 3 48 3 47 -50 0 -51 0 1 328 1 327 24 -55 c14 -30 89 -199 167
-375 l142 -320 75 0 75 0 3 453 2 452 45 0 45 0 0 45 0 45 -165 0 -165 0 0
-45 0 -45 50 0 50 0 0 -327 c0 -183 -4 -321 -9 -313 -5 8 -77 176 -161 373
l-152 357 -129 0 -129 0 0 -45z"/>
<path d="M3120 7635 l0 -45 50 0 50 0 0 -405 0 -405 -51 0 -50 0 3 -47 3 -48
163 -3 162 -2 0 50 0 50 -45 0 -45 0 0 93 c0 94 0 94 44 162 l44 68 31 -54
c17 -30 71 -124 119 -209 l89 -155 87 -3 86 -3 0 55 0 55 -46 3 -46 3 -119
209 -120 209 108 188 108 189 43 0 42 0 0 45 0 45 -160 0 -160 0 0 -45 0 -45
45 0 c25 0 45 -3 45 -7 0 -8 -234 -423 -237 -420 -2 2 -5 383 -4 415 1 8 17
12 46 12 l45 0 0 45 0 45 -165 0 -165 0 0 -45z"/>
<path d="M3880 7636 c0 -44 1 -45 36 -48 l36 -3 129 -295 128 -295 1 -107 0
-108 -97 0 -98 0 155 -155 155 -155 34 35 35 35 -29 30 c-16 16 -27 32 -24 34
2 2 46 27 97 56 l94 53 103 -103 104 -103 -21 -41 c-11 -23 -36 -67 -55 -99
l-35 -59 -32 31 -32 31 -34 -35 -34 -35 107 -107 107 -107 35 34 35 34 -25 26
c-14 14 -25 30 -25 34 0 5 38 77 84 160 46 83 147 266 225 406 l141 254 -57
58 c-32 32 -61 58 -65 58 -4 0 -157 -83 -340 -185 -182 -102 -342 -185 -355
-185 -23 0 -23 2 -23 109 l0 109 115 263 c63 145 122 279 130 297 12 27 20 32
50 32 35 0 35 0 35 45 l0 45 -155 0 -155 0 0 -45 0 -45 46 0 c39 0 46 -3 41
-17 -11 -39 -159 -409 -166 -416 -7 -7 -182 404 -181 426 0 4 20 7 45 7 l45 0
0 45 0 45 -155 0 -155 0 0 -44z m1030 -835 c-62 -105 -115 -191 -119 -191 -3
0 -42 36 -85 79 l-79 80 34 20 c263 156 355 209 357 206 2 -2 -47 -89 -108
-194z"/>
<path d="M6842 6773 l-404 -225 -29 28 -29 28 -33 -32 -32 -32 108 -107 107
-108 32 32 32 33 -29 30 c-16 16 -27 31 -24 33 12 11 182 107 188 107 3 0 53
-47 110 -104 l103 -104 -42 -73 c-23 -41 -49 -85 -57 -98 l-15 -23 -32 31 -32
31 -32 -33 -32 -33 108 -107 108 -107 32 33 32 33 -25 24 c-14 13 -25 27 -25
32 0 7 66 128 351 641 55 98 99 181 99 185 0 14 -106 112 -120 111 -8 0 -197
-102 -418 -226z m345 5 c-24 -40 -76 -129 -116 -197 l-73 -123 -79 78 c-43 43
-79 82 -79 85 0 4 82 55 183 114 100 59 186 111 191 116 24 22 14 -5 -27 -73z"/>
<path d="M5417 6732 c-15 -15 -27 -32 -27 -37 0 -5 13 -23 30 -40 l30 -31
-285 -284 -285 -284 -35 34 -35 34 -30 -29 c-16 -16 -30 -34 -30 -40 0 -6 74
-84 164 -173 190 -188 236 -217 346 -217 54 0 78 6 135 34 59 29 95 59 225
190 162 162 203 219 219 305 10 56 -1 123 -31 185 -15 29 -83 108 -187 214
-90 92 -167 167 -171 167 -3 0 -18 -13 -33 -28z m206 -292 c83 -88 102 -128
94 -197 -7 -63 -55 -128 -205 -275 -146 -144 -204 -182 -271 -182 -61 1 -97
21 -187 106 l-75 72 278 278 c153 153 281 278 284 278 4 0 41 -36 82 -80z"/>
<path d="M1641 6660 c-63 -13 -113 -42 -138 -79 -50 -74 -53 -216 -7 -301 34
-63 78 -101 192 -171 163 -98 181 -119 183 -212 2 -68 -21 -114 -66 -133 -36
-14 -132 -18 -197 -8 l-37 6 -3 62 -3 61 -57 2 -58 3 0 -104 0 -105 78 -17
c102 -23 259 -24 332 -2 99 31 143 102 143 230 -1 60 -6 88 -26 131 -28 62
-56 86 -232 200 -128 84 -148 110 -149 197 0 104 50 143 177 138 l72 -3 5 -60
5 -60 60 0 60 0 3 101 3 101 -48 13 c-63 15 -237 22 -292 10z"/>
<path d="M2100 6609 l0 -49 45 0 45 0 0 -405 0 -405 -45 0 -45 0 0 -49 0 -48
160 -2 160 -2 0 50 0 51 -44 0 -45 0 -3 89 -3 90 45 70 c25 39 47 71 50 71 3
0 59 -95 125 -211 l119 -210 86 3 85 3 3 53 3 52 -48 0 -48 0 -85 147 c-47 81
-102 177 -122 214 l-37 66 107 186 107 187 46 0 46 0 -1 48 -1 47 -155 1
c-106 1 -157 -2 -162 -10 -4 -6 -8 -28 -8 -48 l0 -38 49 0 49 0 -121 -214
c-67 -118 -123 -213 -125 -212 -3 4 -4 104 -3 289 l1 137 45 0 45 0 0 50 0 49
-160 -1 -160 0 0 -49z"/>
<path d="M2850 6609 l0 -48 37 -3 38 -3 127 -290 127 -290 1 -112 0 -113 -91
0 -92 0 44 -47 c24 -27 92 -95 152 -153 l107 -104 32 32 32 32 -29 30 c-16 16
-27 32 -24 34 9 9 181 106 187 106 4 0 54 -46 110 -103 l103 -103 -42 -75
c-22 -41 -48 -85 -56 -98 l-15 -23 -32 31 -32 31 -32 -33 -32 -33 108 -107
108 -107 32 33 32 33 -25 24 c-14 13 -25 27 -25 31 0 5 101 191 225 415 124
223 225 409 225 413 0 12 -105 111 -118 111 -7 0 -162 -83 -346 -185 -183
-102 -343 -185 -354 -185 -21 0 -22 4 -22 108 l0 109 129 294 128 294 37 3 37
3 -3 47 -3 47 -147 3 c-146 2 -148 2 -153 -20 -3 -13 -4 -34 -2 -48 3 -21 10
-25 45 -28 23 -2 42 -6 42 -10 0 -13 -165 -432 -170 -432 -3 0 -13 19 -22 43
-9 23 -48 119 -87 214 -39 95 -71 175 -71 178 0 3 20 5 45 5 l45 0 0 44 c0 35
-4 46 -19 51 -10 3 -80 5 -155 4 l-136 -2 0 -48z m1103 -716 c-22 -37 -73
-124 -113 -191 l-73 -124 -78 78 c-44 43 -78 82 -76 87 3 10 370 227 376 222
2 -2 -14 -35 -36 -72z"/>
<path d="M7650 6555 l-34 -35 27 -28 c15 -15 27 -32 26 -38 0 -5 -136 -127
-301 -272 l-301 -263 -37 36 -36 35 -32 -33 -32 -33 118 -117 118 -117 32 33
32 33 -30 29 c-17 16 -29 35 -28 41 2 10 239 223 491 442 10 9 -48 -119 -129
-284 -80 -164 -148 -306 -151 -314 -2 -8 13 -32 35 -53 l38 -37 265 128 c145
71 284 139 309 152 40 20 43 21 30 4 -42 -54 -433 -494 -438 -494 -3 0 -20 14
-37 30 l-31 30 -32 -33 -32 -33 115 -114 115 -115 32 33 32 32 -33 34 -33 35
268 305 268 306 31 -30 31 -30 34 35 34 35 -92 93 -92 92 -325 -163 c-179 -89
-325 -159 -325 -156 0 4 24 52 54 108 82 154 266 523 266 533 0 5 -42 50 -93
101 l-93 92 -34 -35z"/>
<path d="M5825 5751 l-410 -229 -31 29 -30 29 -34 -35 -34 -35 107 -107 107
-107 35 34 35 34 -30 31 -30 31 98 56 97 57 103 -102 c56 -56 102 -105 102
-109 0 -5 -24 -51 -53 -103 l-53 -94 -32 31 -32 32 -35 -34 -35 -34 107 -108
108 -108 34 35 35 35 -27 28 -27 28 225 407 c124 223 225 410 225 414 0 5 -26
34 -57 65 l-58 57 -410 -228z m274 -102 c-56 -96 -108 -185 -116 -198 l-15
-23 -79 78 c-44 43 -78 82 -76 87 2 8 380 235 385 232 2 -2 -43 -81 -99 -176z"/>
<path d="M7917 5102 l-637 -637 34 -35 c32 -32 35 -40 37 -102 1 -38 0 -70 -2
-73 -3 -2 -34 25 -69 60 -36 36 -69 65 -75 65 -6 0 -26 -16 -45 -35 l-34 -35
84 -85 84 -85 27 26 27 26 4 -28 c2 -16 1 -505 -2 -1087 l-5 -1057 -1082 -3
c-596 -1 -1083 0 -1083 3 0 2 17 21 37 42 l37 38 -79 80 c-44 44 -84 80 -90
80 -6 0 -26 -16 -45 -35 l-34 -35 84 -85 c94 -95 97 -87 -34 -86 -66 0 -71 2
-108 38 l-38 38 -643 -643 -642 -642 2468 0 2467 0 0 2465 c0 1356 -1 2465 -3
2465 -1 0 -289 -287 -640 -638z"/>
<path d="M4385 5700 l-29 -30 34 -35 34 -36 -287 -286 -286 -287 -36 34 -35
34 -33 -32 -32 -33 175 -173 c199 -196 234 -219 340 -220 55 -1 76 4 135 33
59 28 95 59 226 190 130 131 162 167 190 226 47 96 47 164 1 258 -27 55 -65
100 -189 228 -86 87 -161 159 -167 159 -7 0 -25 -14 -41 -30z m213 -294 c87
-90 100 -119 89 -198 -8 -60 -62 -130 -210 -275 -141 -138 -195 -173 -266
-173 -59 0 -105 27 -186 109 l-70 71 275 275 c151 151 278 275 281 275 3 0 43
-38 87 -84z"/>
<path d="M6620 5525 l-34 -35 31 -32 31 -33 -279 -245 c-154 -135 -291 -254
-304 -264 l-25 -20 -35 34 -35 34 -30 -29 c-16 -16 -30 -34 -30 -40 0 -5 51
-61 113 -123 l113 -112 34 35 34 35 -34 35 c-29 30 -32 37 -20 49 18 16 458
403 483 424 23 20 -14 -60 -167 -367 l-118 -234 44 -43 43 -42 215 106 c345
172 392 193 384 180 -5 -7 -105 -122 -223 -256 l-214 -243 -34 33 -33 32 -35
-35 -35 -34 115 -115 115 -115 35 36 35 35 -34 33 -34 33 266 304 266 304 31
-30 31 -30 34 35 34 35 -89 90 c-49 50 -92 90 -96 90 -3 0 -147 -69 -320 -154
-173 -85 -316 -153 -317 -151 -4 4 116 245 239 480 l78 151 -97 97 -98 97 -34
-35z"/>
<path d="M9047 5280 c-109 -19 -199 -94 -234 -193 -22 -64 -26 -326 -5 -394
24 -79 71 -135 146 -173 l69 -35 254 -3 c233 -3 260 -2 321 17 108 32 172 99
201 208 19 68 24 205 11 289 -22 146 -75 221 -190 266 -50 20 -74 22 -290 24
-129 1 -256 -1 -283 -6z m513 -221 c91 -19 141 -82 142 -174 1 -76 -26 -123
-88 -155 -47 -24 -54 -25 -297 -28 -319 -4 -358 7 -402 110 -21 52 -19 96 8
148 25 49 55 74 113 95 49 18 447 21 524 4z"/>
<path d="M2595 4871 l-410 -228 -31 29 -30 28 -34 -35 -34 -35 107 -107 107
-107 35 34 35 34 -30 31 -30 31 98 56 97 57 103 -102 c56 -56 102 -106 102
-110 0 -5 -24 -51 -53 -102 l-54 -94 -31 32 -32 31 -35 -34 -35 -34 107 -108
108 -108 34 35 35 35 -27 28 -28 29 19 34 c87 151 432 781 432 787 0 4 -26 33
-58 65 l-57 56 -410 -228z m347 23 c-16 -27 -69 -116 -117 -198 l-87 -148 -79
78 c-43 43 -79 82 -79 86 0 3 55 39 123 79 67 39 154 91 192 114 39 24 71 41
73 40 2 -2 -10 -25 -26 -51z"/>
<path d="M4800 4725 c-223 -124 -410 -225 -416 -225 -6 0 -21 11 -34 25 l-24
25 -33 -32 -33 -32 107 -108 107 -108 33 32 33 32 -31 32 -30 31 98 56 98 56
105 -105 105 -104 -40 -75 c-22 -41 -47 -85 -57 -97 l-17 -23 -31 30 -30 29
-33 -32 -32 -32 108 -107 107 -108 32 32 32 33 -27 27 -26 28 229 415 229 415
-56 57 c-32 32 -60 58 -63 58 -3 0 -187 -101 -410 -225z m260 -124 c-62 -105
-115 -191 -119 -191 -3 0 -42 35 -85 79 l-78 79 173 102 c96 56 183 108 194
115 11 7 21 11 23 10 2 -2 -47 -89 -108 -194z"/>
<path d="M3360 4676 l-34 -36 34 -35 34 -35 -284 -285 -284 -285 -31 30 c-17
17 -36 30 -41 30 -6 0 -23 -14 -39 -30 l-29 -31 149 -150 c169 -169 226 -212
306 -233 124 -32 214 11 397 189 201 194 261 292 250 405 -9 95 -48 152 -227
333 l-166 168 -35 -35z m286 -393 c49 -100 11 -174 -193 -374 -224 -220 -289
-230 -453 -72 l-75 72 280 280 280 281 68 -68 c37 -37 79 -90 93 -119z"/>
<path d="M5592 4497 l-32 -33 30 -29 c17 -16 29 -32 28 -36 -3 -5 -548 -484
-591 -518 -16 -13 -22 -10 -53 20 l-34 33 -33 -32 -32 -32 118 -117 117 -118
32 32 32 33 -34 35 c-21 22 -30 39 -24 44 53 52 499 440 501 437 2 -2 -64
-140 -147 -306 l-151 -303 38 -39 c20 -21 43 -38 49 -38 7 0 113 50 236 111
280 140 371 181 361 166 -4 -7 -103 -121 -221 -255 l-215 -243 -34 33 -33 32
-32 -32 -33 -32 115 -115 114 -115 33 32 33 32 -30 31 c-16 17 -30 35 -30 39
0 7 442 518 506 586 l24 24 30 -29 30 -29 35 35 35 34 -92 92 -93 92 -320
-158 c-176 -87 -322 -157 -324 -155 -2 1 70 145 159 320 l162 317 -93 93 c-52
52 -96 94 -99 94 -3 0 -20 -15 -38 -33z"/>
<path d="M8800 3935 l0 -525 50 0 50 0 0 45 0 45 402 -2 403 -3 -3 -42 -4 -43
51 0 51 0 0 204 0 203 -47 -1 c-51 -1 -50 0 -52 -63 l-1 -33 -400 0 -400 0 0
40 0 40 63 0 63 0 1 95 c1 67 -2 95 -10 97 -7 0 -16 2 -22 3 -5 2 -27 3 -47 4
l-38 1 0 75 0 75 395 0 395 0 1 -27 c3 -71 1 -68 52 -69 l47 -2 0 204 0 204
-49 0 c-43 0 -48 -2 -48 -22 -1 -13 -1 -33 -2 -45 l-1 -23 -400 0 -400 0 0 45
0 45 -50 0 -50 0 0 -525z"/>
<path d="M6987 4172 l-37 -38 85 -84 85 -85 37 38 38 37 -85 85 -86 85 -37
-38z"/>
<path d="M1602 3883 l-403 -225 -30 28 -29 28 -35 -35 -35 -34 108 -108 108
-107 34 35 34 35 -29 30 c-16 16 -27 32 -24 34 2 2 46 27 97 56 l94 53 103
-103 104 -104 -36 -66 c-19 -36 -45 -80 -56 -98 l-20 -33 -31 30 -32 31 -34
-35 -34 -35 107 -107 107 -107 35 34 35 34 -28 29 -29 28 228 412 229 412 -57
57 c-32 32 -62 58 -68 57 -5 -1 -191 -102 -413 -226z m273 -115 c-59 -100
-111 -187 -116 -193 -6 -6 -39 21 -89 70 -46 46 -76 83 -71 88 13 13 376 225
379 222 2 -2 -44 -86 -103 -187z"/>
<path d="M6810 3995 l-34 -35 84 -85 84 -85 38 37 38 37 -82 83 c-45 46 -85
83 -88 83 -3 0 -21 -16 -40 -35z"/>
<path d="M3762 3693 l-403 -226 -30 29 -29 28 -35 -35 -35 -34 108 -108 108
-107 34 35 34 35 -29 30 c-16 16 -27 32 -24 34 2 2 46 27 97 56 l94 53 105
-105 104 -105 -22 -39 c-12 -21 -38 -65 -57 -97 l-34 -59 -32 31 -32 31 -34
-35 -34 -35 107 -107 107 -107 35 34 35 34 -25 26 c-14 14 -25 30 -25 34 0 8
58 115 337 615 l113 205 -57 58 c-32 32 -62 58 -68 57 -5 -1 -191 -102 -413
-226z m337 -5 c-108 -188 -182 -308 -188 -308 -3 0 -42 35 -85 79 -59 59 -75
81 -65 87 70 44 375 221 377 219 2 -2 -15 -36 -39 -77z"/>
<path d="M6630 3815 l-34 -35 84 -85 85 -85 40 40 40 40 -80 80 c-44 44 -84
80 -90 80 -6 0 -26 -16 -45 -35z"/>
<path d="M2377 3692 c-15 -15 -27 -32 -27 -37 0 -5 13 -23 30 -40 l30 -31
-285 -284 -285 -284 -35 34 -35 34 -35 -35 -35 -35 172 -170 c202 -199 233
-218 348 -219 116 0 168 32 361 224 180 181 211 229 217 344 4 61 1 75 -29
135 -26 54 -63 98 -192 230 -88 89 -163 162 -167 162 -3 0 -18 -13 -33 -28z
m197 -282 c156 -165 145 -231 -71 -452 -135 -137 -221 -203 -279 -214 -57 -11
-118 20 -206 104 l-79 76 278 278 c153 153 281 278 284 278 4 0 36 -31 73 -70z"/>
<path d="M6457 3642 l-37 -38 85 -84 85 -85 37 38 38 37 -85 85 -86 85 -37
-38z"/>
<path d="M4562 3467 l-32 -33 31 -31 31 -31 -43 -39 c-24 -22 -161 -142 -303
-267 l-260 -227 -36 36 -36 35 -34 -35 -34 -35 117 -117 117 -117 35 34 35 34
-35 36 -35 36 226 199 c125 110 242 213 261 229 32 27 29 17 -63 -165 -108
-217 -204 -417 -204 -428 0 -4 17 -24 38 -44 l38 -38 145 69 c79 38 218 106
309 152 91 46 158 74 150 64 -44 -56 -433 -494 -438 -494 -3 0 -20 14 -37 30
l-31 30 -34 -35 -34 -35 114 -115 115 -115 34 35 35 35 -33 34 -34 35 243 278
c134 153 254 289 266 303 l24 24 30 -29 30 -29 35 35 35 34 -93 93 -93 93
-320 -159 c-175 -88 -320 -158 -322 -157 -2 2 70 146 159 320 l162 317 -94 94
c-51 52 -96 94 -99 94 -3 0 -20 -15 -38 -33z"/>
<path d="M6280 3465 l-34 -35 84 -85 84 -85 38 37 38 37 -82 83 c-45 46 -85
83 -88 83 -3 0 -21 -16 -40 -35z"/>
<path d="M8800 3195 l0 -205 50 0 50 0 0 50 0 50 238 -1 c130 0 233 -3 227 -5
-5 -3 -134 -60 -285 -127 l-275 -122 -3 -117 -3 -118 451 0 450 0 1 -27 c1
-16 2 -36 2 -45 0 -15 9 -18 48 -18 l49 0 0 206 0 205 -47 -3 -48 -3 -1 -45
-1 -45 -229 -2 -229 -3 275 119 275 118 3 172 2 171 -45 0 c-25 0 -46 -4 -46
-10 -1 -5 -3 -14 -4 -20 -1 -5 -3 -23 -4 -40 l-1 -30 -400 0 -400 0 0 50 0 50
-50 0 -50 0 0 -205z"/>
<path d="M6100 3285 l-34 -35 84 -85 85 -85 40 40 40 40 -80 80 c-44 44 -84
80 -90 80 -6 0 -26 -16 -45 -35z"/>
<path d="M5927 3112 l-37 -38 85 -84 85 -85 37 38 38 37 -85 85 -86 85 -37
-38z"/>
<path d="M5750 2935 l-34 -35 84 -85 84 -85 38 37 38 37 -82 83 c-45 46 -85
83 -88 83 -3 0 -21 -16 -40 -35z"/>
<path d="M2785 2711 l-410 -229 -31 29 -30 29 -34 -35 -34 -35 107 -107 107
-107 35 34 35 34 -30 31 -30 31 91 52 c50 29 96 52 103 52 12 0 206 -190 206
-202 0 -4 -24 -50 -53 -102 l-54 -95 -31 32 -32 31 -35 -34 -35 -34 107 -108
108 -108 34 35 35 35 -27 28 -27 29 225 407 c124 224 225 410 225 414 0 4 -26
33 -57 64 l-58 57 -410 -228z m346 22 c-15 -27 -67 -115 -116 -197 l-87 -148
-79 78 c-44 43 -78 82 -76 87 3 9 367 227 379 227 4 0 -5 -21 -21 -47z"/>
<path d="M1490 2806 l-34 -36 34 -35 34 -35 -284 -285 -285 -285 -35 35 -36
35 -34 -35 -34 -35 139 -141 c212 -213 280 -255 399 -247 106 7 159 41 337
218 192 191 224 244 224 360 -1 114 -25 152 -224 353 l-166 168 -35 -35z m286
-393 c50 -101 11 -175 -198 -379 -223 -216 -280 -225 -449 -65 l-74 70 280
280 280 281 68 -68 c37 -37 79 -90 93 -119z"/>
<path d="M5570 2755 l-34 -35 84 -85 85 -85 40 40 40 40 -80 80 c-44 44 -84
80 -90 80 -6 0 -26 -16 -45 -35z"/>
<path d="M5397 2582 l-37 -38 85 -84 85 -85 37 38 38 37 -85 85 -86 85 -37
-38z"/>
<path d="M3580 2485 l-34 -35 31 -32 31 -33 -285 -250 c-156 -137 -293 -256
-304 -264 -18 -13 -23 -11 -54 19 l-35 34 -35 -34 -35 -34 117 -118 118 -118
34 35 35 35 -34 35 c-21 22 -30 38 -24 44 48 46 499 440 501 438 1 -2 -65
-139 -147 -306 -83 -167 -150 -306 -150 -310 0 -4 17 -24 39 -45 l38 -38 84
43 c234 118 529 256 522 246 -4 -7 -104 -121 -222 -255 l-214 -243 -34 33 -33
32 -35 -35 -35 -34 115 -115 115 -114 35 34 35 34 -34 36 -34 35 266 303 266
302 31 -30 31 -30 34 35 34 35 -91 92 -92 92 -321 -158 c-176 -87 -322 -157
-323 -155 -2 2 68 143 155 313 87 170 158 314 158 320 0 6 -42 53 -93 104
l-93 92 -34 -35z"/>
<path d="M8821 2468 c-23 -73 -33 -176 -29 -302 3 -122 6 -136 33 -191 25 -51
38 -64 80 -85 41 -20 65 -25 131 -24 67 0 89 4 138 28 62 30 77 48 199 235 70
107 98 131 159 140 110 17 185 -48 170 -146 -3 -21 -9 -23 -63 -23 l-59 0 0
-105 0 -105 103 0 104 0 13 57 c17 77 22 246 11 329 -20 140 -82 201 -214 211
-142 12 -232 -46 -334 -211 -86 -142 -95 -154 -134 -175 -44 -25 -127 -28
-169 -6 -38 20 -60 63 -60 117 0 82 5 88 71 88 l59 0 0 100 0 100 -99 0 -99 0
-11 -32z"/>
<path d="M5220 2405 l-34 -35 84 -85 84 -85 38 37 38 37 -82 83 c-45 46 -85
83 -88 83 -3 0 -21 -16 -40 -35z"/>
<path d="M1892 1823 l-403 -226 -30 29 -29 28 -35 -35 -35 -34 108 -108 108
-107 34 35 34 35 -29 30 c-16 16 -27 31 -24 33 12 11 182 107 188 107 3 0 53
-46 109 -103 l103 -103 -42 -75 c-23 -41 -48 -85 -56 -98 l-15 -23 -32 31 -32
31 -34 -35 -34 -35 107 -107 107 -107 35 34 35 34 -25 26 c-14 14 -25 29 -25
33 0 4 92 173 204 375 111 202 212 385 224 408 l21 41 -57 56 c-32 32 -62 57
-67 56 -6 -1 -191 -102 -413 -226z m273 -115 c-59 -101 -111 -187 -116 -193
-6 -6 -39 20 -89 70 -44 44 -76 83 -72 87 14 14 377 226 381 223 2 -2 -45 -86
-104 -187z"/>
</g>
</svg>
